<svg width="1674" height="2341" xmlns="http://www.w3.org/2000/svg" xmlns:xlink="http://www.w3.org/1999/xlink" overflow="hidden"><defs><clipPath id="clip0"><rect x="92" y="0" width="1674" height="2341"/></clipPath></defs><g clip-path="url(#clip0)" transform="translate(-92 0)"><path d="M92.0001 224.317 1485.92 84.9999 1721 2341 270.828 2336.54 92.0001 224.317Z" fill="#BFBFBF" fill-rule="evenodd"/><path d="M93.9998 227.456 192.09 173.937 1636.7 0 1766 2274.56 1721.41 2337 1485.1 84.7384 93.9998 227.456Z" fill="#FFFFFF" fill-rule="evenodd"/><path d="M359.75 662.8 405.25 872.1 318.8 881.2 296.05 676.45 359.75 662.8Z" fill="#404040" fill-rule="evenodd"/><path d="M375.667 668 419 867.333 336.667 876 315 681 375.667 668Z" fill-rule="evenodd"/><path d="M500.7 1044.57 418.8 537.87 509.8 524.175 596.25 1062.83 500.7 1044.57Z" fill="#404040" fill-rule="evenodd"/><path d="M519 1032.61 441 550.042 527.667 537 610 1050 519 1032.61Z" fill-rule="evenodd"/><path d="M542.7 371.359 644.432 341.9 764.25 1144.1 657.996 1114.64 542.7 371.359Z" fill="#404040" fill-rule="evenodd"/><path d="M567 389.056 663.888 361 778 1125 676.806 1096.94 567 389.056Z" fill-rule="evenodd"/><path d="M709.2 230.222 871.875 1213.58 962.25 1195.45 815.39 223.425 709.2 230.222Z" fill="#404040" fill-rule="evenodd"/><path d="M735 253.474 889.928 1190 976 1172.74 836.134 247 735 253.474Z" fill-rule="evenodd"/><path d="M898.25 353.491 997.897 351.225 1129.25 1055.78 1038.66 1044.45 898.25 353.491Z" fill="#404040" fill-rule="evenodd"/><path d="M923 370.158 1017.9 368 1143 1039 1056.73 1028.21 923 370.158Z" fill-rule="evenodd"/><path d="M1100.95 451.525 1196.02 456.05 1275.25 933.475 1182.44 915.373 1100.95 451.525Z" fill="#404040" fill-rule="evenodd"/><path d="M1123 463 1213.55 467.31 1289 922 1200.61 904.76 1123 463Z" fill-rule="evenodd"/><path d="M1265.65 571.986 1365.16 569.725 1383.25 791.275 1297.31 784.493 1265.65 571.986Z" fill="#404040" fill-rule="evenodd"/><path d="M1285 577.153 1379.77 575 1397 786 1315.15 779.541 1285 577.153Z" fill-rule="evenodd"/><path d="M514.977 1273.47C535.099 1276.18 586.179 1294.82 600.884 1289.77 615.589 1284.72 626.811 1257.55 603.206 1243.19 579.6 1228.83 487.889 1200.88 459.253 1203.6 430.618 1206.32 439.131 1199.72 431.392 1259.49 423.652 1319.27 390.373 1505.2 412.817 1562.27 435.261 1619.33 541.291 1606.13 566.057 1601.86 590.823 1597.59 577.279 1549.07 561.413 1536.65 545.548 1524.22 485.954 1544.8 470.862 1527.33 455.771 1509.86 456.544 1447.37 470.862 1431.84 485.18 1416.31 543.999 1444.26 556.77 1434.17 569.54 1424.08 561.8 1381.77 547.482 1371.29 533.164 1360.81 482.084 1387.59 470.862 1371.29 459.64 1354.98 472.023 1289.77 480.15 1273.47 488.276 1257.17 494.854 1270.75 514.977 1273.47Z" fill="#595959" fill-rule="evenodd"/><path d="M514.682 1264.87C533.314 1267.38 580.61 1284.63 594.226 1279.96 607.841 1275.29 618.232 1250.13 596.376 1236.83 574.519 1223.53 489.601 1197.65 463.087 1200.17 436.572 1202.69 444.455 1196.58 437.289 1251.93 430.122 1307.28 399.308 1479.44 420.09 1532.27 440.872 1585.1 539.047 1572.88 561.979 1568.93 584.91 1564.98 572.369 1520.05 557.679 1508.55 542.989 1497.05 487.809 1516.1 473.836 1499.92 459.862 1483.75 460.578 1425.88 473.836 1411.51 487.093 1397.13 541.555 1423.01 553.379 1413.66 565.203 1404.32 558.037 1365.14 544.78 1355.44 531.523 1345.73 484.226 1370.53 473.836 1355.44 463.445 1340.34 474.91 1279.96 482.435 1264.87 489.959 1249.77 496.05 1262.35 514.682 1264.87Z" fill="#262626" fill-rule="evenodd"/><path d="M722.781 1338.99C737.144 1340.54 779.069 1355.66 787.997 1348.29 796.926 1340.93 789.938 1305.65 776.351 1294.79 762.764 1283.94 727.051 1286.65 706.477 1283.16 685.903 1279.67 665.717 1270.76 652.907 1273.86 640.097 1276.96 630.78 1294.02 629.615 1301.77 628.451 1309.52 648.637 1279.67 645.919 1320.38 643.202 1361.09 608.653 1503.37 613.311 1546.01 617.969 1588.66 653.295 1570.82 673.869 1576.25 694.443 1581.68 718.511 1574.7 736.756 1578.58 755.001 1582.45 772.858 1605.33 783.339 1599.51 793.82 1593.7 815.17 1555.32 799.643 1543.69 784.115 1532.06 709.583 1541.36 690.173 1529.73 670.763 1518.1 672.704 1484.37 683.185 1473.9 693.667 1463.44 741.026 1477 753.06 1466.92 765.094 1456.84 763.929 1424.67 755.389 1413.42 746.849 1402.18 710.747 1411.87 701.819 1399.47 692.89 1387.06 698.325 1349.07 701.819 1338.99 705.312 1328.91 708.418 1337.44 722.781 1338.99Z" fill="#595959" fill-rule="evenodd"/><path d="M721.76 1327.9C735.059 1329.34 773.878 1343.34 782.146 1336.52 790.413 1329.7 783.943 1297.03 771.362 1286.98 758.782 1276.93 725.714 1279.44 706.664 1276.21 687.614 1272.98 668.923 1264.72 657.062 1267.6 645.201 1270.47 636.574 1286.26 635.496 1293.44 634.418 1300.62 653.108 1272.98 650.592 1310.67 648.076 1348.36 616.086 1480.1 620.399 1519.59 624.712 1559.08 657.421 1542.57 676.471 1547.59 695.521 1552.62 717.806 1546.15 734.7 1549.74 751.593 1553.33 768.128 1574.51 777.832 1569.13 787.537 1563.74 807.306 1528.21 792.928 1517.44 778.551 1506.67 709.539 1515.28 691.568 1504.51 673.596 1493.75 675.393 1462.52 685.098 1452.82 694.802 1443.13 738.654 1455.7 749.796 1446.36 760.939 1437.03 759.86 1407.23 751.953 1396.82 744.045 1386.41 710.618 1395.39 702.351 1383.9 694.083 1372.42 699.116 1337.24 702.351 1327.9 705.586 1318.57 708.461 1326.47 721.76 1327.9Z" fill="#262626" fill-rule="evenodd"/><path d="M815.867 1567.44C817.81 1517.26 817.033 1346.5 846.184 1306.05 875.335 1265.59 955.015 1305.27 990.773 1324.72 1026.53 1344.16 1063.07 1393.18 1060.74 1422.74 1058.4 1452.3 976.003 1474.08 976.781 1502.09 977.558 1530.09 1056.07 1569.38 1065.4 1590.77 1074.73 1612.17 1061.51 1645.23 1032.75 1630.45 1003.99 1615.67 919.644 1507.14 892.826 1502.09 866.007 1497.03 881.554 1582.61 871.837 1600.11 862.12 1617.61 844.241 1612.56 834.524 1607.11 824.807 1601.67 813.924 1617.61 815.867 1567.44Z" fill="#595959" fill-rule="evenodd"/><path d="M825.21 1541.24C827.01 1494.78 826.29 1336.67 853.282 1299.22 880.273 1261.76 954.051 1298.49 987.16 1316.5 1020.27 1334.51 1054.1 1379.89 1051.94 1407.26 1049.78 1434.64 973.485 1454.8 974.204 1480.74 974.924 1506.67 1047.62 1543.04 1056.26 1562.85 1064.9 1582.66 1052.66 1613.28 1026.03 1599.59 999.397 1585.9 921.3 1485.42 896.468 1480.74 871.636 1476.05 886.031 1555.29 877.034 1571.5 868.037 1587.7 851.482 1583.02 842.485 1577.98 833.488 1572.94 823.411 1587.7 825.21 1541.24Z" fill="#262626" fill-rule="evenodd"/><path d="M895.039 1360.83C887.877 1374.81 865.547 1440.93 882.4 1452.37 899.253 1463.81 988.993 1443.47 996.156 1429.48 1003.32 1415.5 944.333 1380.32 925.374 1368.46 906.415 1356.59 902.202 1346.84 895.039 1360.83Z" fill="#595959" fill-rule="evenodd"/><path d="M901.064 1348.89C894.942 1360.84 875.857 1417.35 890.261 1427.13 904.665 1436.91 981.366 1419.52 987.488 1407.57 993.609 1395.62 943.195 1365.55 926.991 1355.41 910.787 1345.27 907.185 1336.93 901.064 1348.89Z" fill="#BFBFBF" fill-rule="evenodd"/><path d="M1131.04 1236.19C1122.6 1229.96 1095.74 1223.73 1087.3 1229.18 1078.85 1234.63 1076.94 1259.15 1080.39 1268.88 1083.84 1278.61 1098.43 1287.95 1108.02 1287.56 1117.61 1287.17 1135.27 1275.5 1137.95 1266.55 1140.64 1257.59 1139.49 1242.42 1131.04 1236.19Z" fill="#595959" fill-rule="evenodd"/><path d="M1129.41 1219.42C1121.59 1213.66 1096.72 1207.89 1088.9 1212.93 1081.09 1217.98 1079.31 1240.68 1082.51 1249.69 1085.71 1258.7 1099.21 1267.35 1108.09 1266.99 1116.97 1266.63 1133.32 1255.82 1135.81 1247.53 1138.29 1239.24 1137.23 1225.19 1129.41 1219.42Z" fill="#262626" fill-rule="evenodd"/><path d="M1088.33 1385.03C1087.55 1334.21 1071.61 1326.46 1081.33 1312.88 1091.05 1299.3 1134.98 1291.54 1146.65 1303.57 1158.31 1315.59 1152.48 1334.6 1151.31 1385.03 1150.15 1435.46 1150.53 1567.35 1139.65 1606.15 1128.76 1644.94 1093.38 1655.03 1086 1617.79 1078.61 1580.54 1089.11 1435.85 1088.33 1385.03Z" fill="#595959" fill-rule="evenodd"/><path d="M1090.38 1372.94C1089.66 1325.89 1074.9 1318.71 1083.9 1306.13 1092.9 1293.56 1133.58 1286.38 1144.38 1297.51 1155.18 1308.65 1149.78 1326.25 1148.7 1372.94 1147.62 1419.64 1147.98 1541.76 1137.9 1577.68 1127.82 1613.6 1095.06 1622.94 1088.22 1588.46 1081.38 1553.97 1091.1 1420 1090.38 1372.94Z" fill="#262626" fill-rule="evenodd"/><path d="M1187.8 1574.69C1181.61 1517.64 1186.64 1350.76 1199.42 1299.92 1212.19 1249.08 1237.36 1273.92 1264.46 1269.65 1291.56 1265.38 1347.31 1263.44 1362.03 1274.3 1376.74 1285.17 1368.99 1326.31 1352.73 1334.85 1336.47 1343.38 1280.33 1315.05 1264.46 1325.53 1248.59 1336.01 1247.04 1382.97 1257.49 1397.72 1267.95 1412.46 1313.63 1403.15 1327.18 1414.02 1340.73 1424.88 1352.73 1453.99 1338.8 1462.92 1324.86 1471.84 1259.43 1450.11 1243.55 1467.57 1227.68 1485.04 1226.91 1550.24 1243.55 1567.7 1260.2 1585.17 1324.47 1561.49 1343.44 1572.36 1362.41 1583.22 1382.16 1623.59 1357.38 1632.9 1332.6 1642.21 1263.69 1652.3 1236.58 1642.21 1209.48 1632.12 1194 1631.74 1187.8 1574.69Z" fill="#595959" fill-rule="evenodd"/><path d="M1194.45 1547.59C1188.71 1494.76 1193.37 1340.25 1205.2 1293.17 1217.03 1246.1 1240.33 1269.1 1265.43 1265.14 1290.52 1261.19 1342.14 1259.39 1355.76 1269.45 1369.39 1279.52 1362.22 1317.61 1347.16 1325.51 1332.1 1333.42 1280.12 1307.19 1265.43 1316.89 1250.73 1326.59 1249.29 1370.07 1258.97 1383.73 1268.65 1397.38 1310.95 1388.76 1323.5 1398.82 1336.05 1408.88 1347.16 1435.83 1334.26 1444.1 1321.35 1452.36 1260.77 1432.24 1246.07 1448.41 1231.37 1464.58 1230.65 1524.95 1246.07 1541.12 1261.48 1557.29 1320.99 1535.37 1338.56 1545.43 1356.12 1555.49 1374.41 1592.86 1351.46 1601.49 1328.52 1610.11 1264.71 1619.45 1239.62 1610.11 1214.52 1600.77 1200.18 1600.41 1194.45 1547.59Z" fill="#262626" fill-rule="evenodd"/><path d="M341.265 1821.06C332.254 1792.77 344.27 1736.48 350.278 1710.89 356.286 1685.31 367.701 1672.97 377.314 1667.55 386.927 1662.13 402.848 1661.83 407.955 1678.39 413.062 1694.94 407.955 1766.88 407.955 1766.88 407.955 1788.85 400.445 1806.01 407.955 1810.23 415.465 1814.44 435.592 1816.85 453.016 1792.17 470.439 1767.48 496.875 1681.4 512.496 1662.13 528.117 1642.87 549.445 1652.5 546.742 1676.58 544.038 1700.66 520.006 1772.6 496.274 1806.61 472.542 1840.63 429.584 1878.25 404.35 1880.66 379.117 1883.07 350.277 1849.36 341.265 1821.06Z" fill="#595959" fill-rule="evenodd"/><path d="M346.086 1800.12C337.503 1773.18 348.947 1719.57 354.669 1695.2 360.391 1670.83 371.263 1659.08 380.418 1653.92 389.573 1648.76 404.736 1648.47 409.6 1664.24 414.464 1680.01 409.6 1748.52 409.6 1748.52 409.6 1769.45 402.448 1785.79 409.6 1789.8 416.753 1793.82 435.921 1796.11 452.515 1772.6 469.108 1749.1 494.285 1667.11 509.163 1648.76 524.04 1630.41 544.353 1639.59 541.778 1662.52 539.203 1685.45 516.315 1753.97 493.713 1786.36 471.111 1818.76 430.199 1854.59 406.167 1856.88 382.135 1859.18 354.669 1827.07 346.086 1800.12Z" fill="#262626" fill-rule="evenodd"/><path d="M601.732 1641.35C591.422 1643.46 570.496 1652.19 567.161 1663.03 563.825 1673.87 570.496 1702.77 581.717 1706.39 592.938 1710 626.599 1694.04 634.484 1684.71 642.368 1675.37 633.877 1657.91 629.025 1650.38 624.173 1642.86 612.043 1639.24 601.732 1641.35Z" fill="#595959" fill-rule="evenodd"/><path d="M601.745 1624.57C591.925 1626.57 571.997 1634.89 568.82 1645.21 565.643 1655.53 571.997 1683.06 582.683 1686.5 593.369 1689.94 625.428 1674.75 632.937 1665.86 640.446 1656.97 632.359 1640.34 627.738 1633.17 623.117 1626 611.564 1622.56 601.745 1624.57Z" fill="#262626" fill-rule="evenodd"/><path d="M577.972 1717.43C564.367 1723.44 551.065 1734.87 541.693 1758.92 532.321 1782.97 523.251 1836.48 521.74 1861.73 520.228 1886.99 525.367 1904.72 532.623 1910.43 539.879 1916.15 550.46 1921.26 565.274 1896 580.088 1870.75 615.157 1788.08 621.506 1758.92 627.855 1729.76 630.273 1730.06 623.32 1722.84 616.367 1715.63 591.576 1711.42 577.972 1717.43Z" fill="#595959" fill-rule="evenodd"/><path d="M577.806 1703.74C564.85 1709.46 552.181 1720.34 543.255 1743.25 534.33 1766.15 525.692 1817.12 524.252 1841.17 522.812 1865.22 527.707 1882.11 534.617 1887.55 541.528 1892.99 551.605 1897.86 565.713 1873.81 579.822 1849.76 613.221 1771.02 619.268 1743.25 625.314 1715.47 627.617 1715.76 620.995 1708.89 614.373 1702.02 590.763 1698.01 577.806 1703.74Z" fill="#262626" fill-rule="evenodd"/><path d="M675.931 1691.92C681.935 1676.25 699.648 1649.74 717.36 1644.92 735.073 1640.1 769.898 1649.44 782.207 1663 794.516 1676.55 795.117 1713.92 791.214 1726.27 787.311 1738.62 765.996 1744.05 758.791 1737.12 751.585 1730.19 756.989 1692.22 747.983 1684.69 738.976 1677.16 710.456 1684.69 704.752 1691.92 699.047 1699.15 702.95 1713.01 713.758 1728.08 724.566 1743.14 760.292 1757.91 769.598 1782.31 778.905 1806.72 780.106 1851.91 769.598 1874.51 759.091 1897.11 726.667 1910.36 706.553 1917.9 686.438 1925.43 664.822 1928.44 648.911 1919.7 633 1910.97 614.086 1885.06 611.084 1865.47 608.082 1845.89 621.291 1817.26 630.898 1802.2 640.505 1787.13 658.218 1775.08 668.725 1775.08 679.233 1775.08 691.842 1792.86 693.944 1802.2 696.045 1811.54 680.734 1822.38 681.334 1831.12 681.935 1839.86 688.54 1854.93 697.546 1854.62 706.553 1854.32 730.57 1841.37 735.373 1829.31 740.177 1817.26 735.374 1797.38 726.367 1782.31 717.361 1767.25 689.44 1754.29 681.334 1738.92 673.229 1723.56 669.926 1707.59 675.931 1691.92Z" fill="#595959" fill-rule="evenodd"/><path d="M677.172 1677.99C682.891 1663.07 699.76 1637.81 716.629 1633.22 733.498 1628.63 766.665 1637.53 778.388 1650.44 790.111 1663.35 790.683 1698.94 786.966 1710.7 783.249 1722.47 762.948 1727.63 756.086 1721.03 749.224 1714.43 754.371 1678.28 745.793 1671.1 737.216 1663.93 710.053 1671.1 704.62 1677.99 699.188 1684.88 702.905 1698.08 713.198 1712.42 723.491 1726.77 757.516 1740.83 766.379 1764.07 775.243 1787.32 776.387 1830.36 766.379 1851.88 756.372 1873.4 725.492 1886.03 706.336 1893.2 687.179 1900.38 666.593 1903.25 651.439 1894.93 636.285 1886.6 618.272 1861.93 615.413 1843.27 612.554 1824.62 625.134 1797.36 634.284 1783.01 643.433 1768.67 660.303 1757.19 670.31 1757.19 680.317 1757.19 692.326 1774.12 694.327 1783.01 696.329 1791.91 681.747 1802.24 682.318 1810.56 682.89 1818.88 689.181 1833.23 697.758 1832.94 706.336 1832.66 729.209 1820.32 733.784 1808.84 738.359 1797.36 733.785 1778.42 725.207 1764.07 716.629 1749.73 690.038 1737.39 682.318 1722.75 674.599 1708.12 671.454 1692.91 677.172 1677.99Z" fill="#262626" fill-rule="evenodd"/><path d="M871.499 1660.59C859.424 1663.58 835.275 1679.73 835.275 1691.09 835.275 1702.45 859.424 1731.76 871.499 1728.77 883.573 1725.78 908.024 1684.21 907.722 1673.15 907.421 1662.08 883.573 1657.6 871.499 1660.59Z" fill="#595959" fill-rule="evenodd"/><path d="M871.499 1643.86C859.999 1646.71 837 1662.09 837 1672.91 837 1683.73 859.999 1711.65 871.499 1708.8 882.998 1705.95 906.285 1666.36 905.998 1655.82 905.71 1645.29 882.998 1641.01 871.499 1643.86Z" fill="#262626" fill-rule="evenodd"/><path d="M842.085 1728.82C829.138 1738.16 812.579 1775.55 804.149 1806.6 795.719 1837.65 787.891 1893.72 791.504 1915.13 795.117 1936.53 809.869 1952.51 825.826 1935.02 841.783 1917.54 877.913 1840.96 887.246 1810.21 896.579 1779.46 888.149 1764.09 881.827 1750.52 875.504 1736.96 855.031 1719.47 842.085 1728.82Z" fill="#595959" fill-rule="evenodd"/><path d="M842.033 1715.51C829.703 1724.41 813.932 1760.01 805.904 1789.58 797.875 1819.16 790.42 1872.56 793.861 1892.95 797.302 1913.33 811.352 1928.55 826.549 1911.9 841.746 1895.24 876.155 1822.32 885.044 1793.03 893.932 1763.74 885.904 1749.1 879.883 1736.18 873.861 1723.26 854.363 1706.61 842.033 1715.51Z" fill="#262626" fill-rule="evenodd"/><path d="M936.065 1723.81C963.428 1710.92 1034.99 1684.53 1069.57 1677.03 1104.15 1669.54 1132.12 1671.04 1143.54 1678.83 1154.97 1686.63 1152.87 1710.32 1138.13 1723.81 1123.4 1737.3 1069.87 1739.1 1055.14 1759.79 1040.41 1780.48 1057.24 1820.66 1049.73 1847.94 1042.21 1875.23 1023.27 1912.11 1010.04 1923.5 996.805 1934.9 973.05 1938.49 970.344 1916.31 967.638 1894.12 989.589 1815.56 993.798 1790.37 998.008 1765.19 1000.71 1767.59 995.602 1765.19 990.49 1762.79 974.253 1772.68 963.127 1775.98 952.002 1779.28 938.771 1786.78 928.848 1784.98 918.925 1783.18 902.988 1764.89 905.394 1754.39 907.799 1743.9 908.701 1736.7 936.065 1723.81Z" fill="#595959" fill-rule="evenodd"/><path d="M940.443 1709.22C966.503 1696.94 1034.66 1671.81 1067.59 1664.67 1100.53 1657.53 1127.16 1658.96 1138.04 1666.38 1148.92 1673.81 1146.92 1696.36 1132.89 1709.22 1118.85 1722.07 1067.88 1723.78 1053.85 1743.48 1039.81 1763.19 1055.85 1801.45 1048.69 1827.44 1041.53 1853.42 1023.49 1888.55 1010.89 1899.4 998.291 1910.25 975.667 1913.68 973.09 1892.55 970.512 1871.41 991.418 1796.6 995.427 1772.61 999.436 1748.62 1002.01 1750.91 997.145 1748.62 992.277 1746.34 976.813 1755.76 966.216 1758.9 955.62 1762.04 943.02 1769.18 933.569 1767.47 924.119 1765.76 908.941 1748.34 911.232 1738.34 913.523 1728.35 914.382 1721.49 940.443 1709.22Z" fill="#262626" fill-rule="evenodd"/><path d="M1156.81 1728.05C1165.5 1715.69 1186.49 1704.84 1203.58 1699.11 1220.66 1693.38 1242.55 1685.55 1259.34 1693.69 1276.12 1701.82 1297.41 1723.23 1304.3 1747.95 1311.2 1772.67 1319.89 1810.05 1300.71 1842 1281.52 1873.95 1220.96 1924.3 1189.19 1939.67 1157.41 1955.05 1127.13 1948.41 1110.04 1934.24 1092.96 1920.08 1086.06 1877.87 1086.66 1854.66 1087.26 1831.45 1102.85 1808.54 1113.64 1794.97 1124.43 1781.41 1144.22 1784.72 1151.41 1773.27 1158.61 1761.81 1148.12 1740.41 1156.81 1728.05Z" fill="#595959" fill-rule="evenodd"/><path d="M1158.84 1714.06C1167.12 1702.29 1187.11 1691.96 1203.38 1686.5 1219.66 1681.05 1240.5 1673.58 1256.49 1681.34 1272.47 1689.09 1292.75 1709.47 1299.31 1733.01 1305.88 1756.55 1314.16 1792.16 1295.89 1822.59 1277.61 1853.02 1219.94 1900.97 1189.68 1915.61 1159.41 1930.25 1130.58 1923.93 1114.3 1910.44 1098.03 1896.95 1091.46 1856.75 1092.03 1834.65 1092.6 1812.54 1107.45 1790.72 1117.73 1777.8 1128.01 1764.88 1146.85 1768.04 1153.7 1757.13 1160.56 1746.22 1150.56 1725.84 1158.84 1714.06Z" fill="#262626" fill-rule="evenodd"/><path d="M1193.25 1773.69C1190.88 1759.88 1181.44 1742.71 1189.2 1731.25 1196.96 1719.8 1224.96 1703.63 1239.8 1704.98 1254.65 1706.33 1278.27 1718.79 1278.27 1739.34 1278.27 1759.89 1250.94 1805.36 1239.8 1828.26 1228.67 1851.17 1222.93 1866.66 1211.46 1876.76 1199.99 1886.87 1181.1 1891.92 1170.98 1888.89 1160.86 1885.86 1150.74 1868.01 1150.74 1858.58 1150.74 1849.14 1163.8 1835.42 1170.98 1832.3 1178.16 1829.19 1188.43 1842.92 1193.83 1839.89 1199.23 1836.86 1203.46 1825.15 1203.37 1814.11 1203.27 1803.08 1195.61 1787.5 1193.25 1773.69Z" fill="#595959" fill-rule="evenodd"/><path d="M1196.33 1758.8C1194.32 1746.99 1186.24 1732.31 1192.87 1722.52 1199.51 1712.73 1223.44 1698.92 1236.13 1700.07 1248.81 1701.22 1269 1711.87 1269 1729.43 1269 1746.99 1245.64 1785.86 1236.13 1805.43 1226.61 1825.01 1221.71 1838.25 1211.9 1846.89 1202.1 1855.53 1185.95 1859.84 1177.3 1857.25 1168.65 1854.66 1160 1839.4 1160 1831.34 1160 1823.28 1171.16 1811.55 1177.3 1808.89 1183.44 1806.23 1192.22 1817.96 1196.83 1815.37 1201.45 1812.78 1205.07 1802.77 1204.98 1793.34 1204.9 1783.91 1198.35 1770.6 1196.33 1758.8Z" fill="#BFBFBF" fill-rule="evenodd"/><path d="M1308.49 1924.57C1310.29 1888.79 1326.23 1774.53 1333.74 1736.94 1341.26 1699.36 1334.04 1704.17 1353.59 1699.06 1373.13 1693.94 1425.15 1695.45 1451.01 1706.27 1476.87 1717.1 1509.95 1740.85 1508.74 1764 1507.54 1787.16 1460.33 1828.95 1443.79 1845.19 1427.26 1861.43 1414.03 1855.11 1409.52 1861.43 1405.01 1867.74 1407.41 1873.75 1416.73 1883.07 1426.05 1892.4 1462.74 1906.23 1465.44 1917.35 1468.15 1928.48 1446.8 1954.04 1432.97 1949.83 1419.14 1945.62 1395.08 1895.1 1382.46 1892.1 1369.83 1889.09 1367.12 1921.86 1357.2 1931.79 1347.27 1941.71 1331.34 1951.93 1322.92 1951.63 1314.5 1951.33 1306.68 1960.35 1308.49 1924.57Z" fill="#595959" fill-rule="evenodd"/><path d="M1313.25 1901.46C1314.97 1867.39 1330.14 1758.57 1337.3 1722.77 1344.46 1686.97 1337.59 1691.56 1356.2 1686.69 1374.82 1681.82 1424.36 1683.25 1448.99 1693.56 1473.61 1703.87 1505.11 1726.49 1503.97 1748.54 1502.82 1770.59 1457.86 1810.4 1442.11 1825.86 1426.36 1841.33 1413.76 1835.31 1409.47 1841.33 1405.17 1847.34 1407.46 1853.07 1416.34 1861.94 1425.22 1870.82 1460.16 1883.99 1462.73 1894.59 1465.31 1905.19 1444.98 1929.53 1431.8 1925.52 1418.63 1921.51 1395.72 1873.4 1383.7 1870.54 1371.67 1867.67 1369.09 1898.89 1359.64 1908.34 1350.19 1917.79 1335.01 1927.52 1326.99 1927.24 1318.98 1926.95 1311.53 1935.54 1313.25 1901.46Z" fill="#262626" fill-rule="evenodd"/><path d="M1416.83 1730.32C1404.17 1739.4 1395.51 1784.14 1396.84 1800.96 1398.18 1817.77 1411.17 1835.6 1424.82 1831.23 1438.48 1826.86 1470.78 1788.85 1478.77 1774.72 1486.77 1760.59 1483.77 1754.2 1472.78 1746.46 1461.79 1738.73 1429.48 1721.24 1416.83 1730.32Z" fill="#595959" fill-rule="evenodd"/><path d="M1420.19 1719.18C1409.38 1726.94 1401.98 1765.18 1403.11 1779.55 1404.25 1793.93 1415.36 1809.16 1427.03 1805.43 1438.7 1801.69 1466.31 1769.2 1473.14 1757.13 1479.97 1745.05 1477.41 1739.59 1468.02 1732.98 1458.62 1726.37 1431.01 1711.42 1420.19 1719.18Z" fill="#BFBFBF" fill-rule="evenodd"/><path d="M724.419 2004.08C725.772 1992.61 740.31 1976.76 750.79 1969.68 761.271 1962.59 782.57 1957.2 787.303 1961.58 792.036 1965.97 785.613 1988.57 779.189 1995.99 772.766 2003.41 749.1 1997.34 748.762 2006.11 748.423 2014.88 767.694 2034.78 777.161 2048.61 786.627 2062.44 802.855 2076.94 805.56 2089.09 808.265 2101.23 808.603 2109.33 793.389 2121.47 778.175 2133.61 730.505 2160.6 714.277 2161.95 698.049 2163.3 689.935 2138.67 696.02 2129.56 702.106 2120.46 738.619 2112.02 750.79 2107.3 762.961 2102.58 764.652 2105.61 769.047 2101.23 773.441 2096.84 781.556 2091.45 777.161 2080.99 772.765 2070.53 752.142 2049.62 742.676 2038.49 733.209 2027.36 723.067 2015.55 724.419 2004.08Z" fill="#262626" fill-rule="evenodd"/><path d="M821.339 1988.43C837.553 1986.07 885.442 1993.9 896.328 2000.57 907.214 2007.23 890.832 2022.74 886.655 2028.42 882.479 2034.11 874.722 2030.89 871.268 2034.67 867.813 2038.46 868.844 2025.8 865.927 2051.13 863.011 2076.46 860.86 2164.4 853.767 2186.65 846.673 2208.9 826.744 2205.86 823.366 2184.63 819.988 2163.39 831.473 2086.19 833.5 2059.22 835.526 2032.25 841.269 2030.23 835.526 2022.81 829.784 2015.4 799.721 2021.13 799.045 2014.72 798.37 2008.32 805.125 1990.79 821.339 1988.43Z" fill="#262626" fill-rule="evenodd"/><path d="M929.625 2024.3C931.706 2040.51 927.025 2091.73 928.065 2107.41 929.105 2123.09 932.485 2121 935.866 2118.38 939.247 2115.77 944.708 2107.67 948.349 2091.73 951.99 2075.79 952.77 2033.97 957.711 2022.74 962.651 2011.5 974.874 2016.2 977.994 2024.3 981.115 2032.4 980.594 2050.7 976.434 2071.34 972.273 2091.99 962.391 2134.85 953.03 2148.17 943.668 2161.5 928.585 2157.32 920.263 2151.31 911.942 2145.3 905.441 2130.4 903.1 2112.11 900.759 2093.82 902.32 2058.54 906.221 2041.55 910.121 2024.56 911.162 2010.45 915.583 2010.19 920.003 2009.93 927.545 2008.1 929.625 2024.3Z" fill="#262626" fill-rule="evenodd"/><path d="M1004.9 2039.96C1000.74 2060.08 996.309 2114.16 997.09 2138.72 997.872 2163.28 1001.26 2183.14 1009.59 2187.32 1017.92 2191.5 1036.15 2175.56 1047.09 2163.8 1058.03 2152.05 1070.53 2133.76 1075.21 2116.78 1079.9 2099.79 1077.82 2075.23 1075.21 2061.91 1072.61 2048.59 1068.44 2044.14 1059.59 2036.83 1050.73 2029.51 1031.2 2017.49 1022.09 2018.02 1012.97 2018.54 1009.07 2019.85 1004.9 2039.96Z" fill="#262626" fill-rule="evenodd"/><path d="M1028.51 2050.93C1022.78 2061.33 1018.87 2122.39 1022.26 2136.69 1025.64 2150.98 1043.09 2147.08 1048.82 2136.69 1054.55 2126.29 1058.2 2088.61 1056.64 2074.32 1055.07 2060.03 1034.24 2040.54 1028.51 2050.93Z" fill="#BFBFBF" fill-rule="evenodd"/><path d="M1093.55 1994.19C1098.54 1997.5 1125.32 2001.3 1129.79 1997.24 1134.25 1993.18 1125.32 1973.11 1120.33 1969.81 1115.34 1966.51 1102.74 1974.13 1099.85 1977.43 1096.96 1980.73 1088.56 1990.89 1093.55 1994.19Z" fill="#262626" fill-rule="evenodd"/><path d="M1098.43 2032.14C1093.72 2054.3 1089 2143.18 1089 2169.77 1089 2196.36 1094.5 2188.8 1098.43 2191.66 1102.36 2194.53 1109.44 2201.83 1112.58 2186.97 1115.72 2172.11 1116.51 2127.54 1117.3 2102.52 1118.08 2077.5 1120.7 2047.78 1117.3 2036.83 1113.89 2025.89 1103.15 2009.99 1098.43 2032.14Z" fill="#262626" fill-rule="evenodd"/><path d="M1181.68 2027.37C1170.19 2033.09 1157.92 2037.51 1150.35 2057.03 1142.78 2076.55 1134.43 2122.09 1136.25 2144.47 1138.08 2166.85 1149.05 2185.06 1161.32 2191.31 1173.59 2197.55 1198.13 2196.77 1209.88 2181.94 1221.63 2167.11 1228.15 2124.43 1231.81 2102.31 1235.46 2080.19 1233.9 2062.5 1231.81 2049.22 1229.72 2035.95 1228.94 2026.32 1219.28 2022.68 1209.62 2019.04 1193.17 2021.64 1181.68 2027.37Z" fill="#262626" fill-rule="evenodd"/><path d="M1184.71 2051.46C1180.26 2055.48 1175.5 2058.58 1172.57 2072.26 1169.63 2085.95 1166.39 2117.88 1167.1 2133.57 1167.81 2149.26 1172.06 2162.03 1176.82 2166.41 1181.57 2170.79 1191.09 2170.24 1195.65 2159.84 1200.2 2149.44 1202.73 2119.52 1204.15 2104.01 1205.57 2088.5 1204.96 2076.09 1204.15 2066.79 1203.34 2057.48 1203.04 2050.73 1199.29 2048.18 1195.55 2045.62 1189.17 2047.45 1184.71 2051.46Z" fill="#BFBFBF" fill-rule="evenodd"/><path d="M1291.02 2030.47C1280.88 2035.17 1258.77 2049.02 1252.01 2060.26 1245.25 2071.49 1244.73 2084.56 1250.45 2097.88 1256.17 2111.21 1279.58 2129.24 1286.34 2140.22 1293.11 2151.19 1297.27 2156.42 1291.02 2163.74 1284.78 2171.05 1259.03 2178.63 1248.89 2184.12 1238.74 2189.61 1228.6 2191.7 1230.16 2196.66 1231.72 2201.63 1248.63 2213.12 1258.25 2213.91 1267.87 2214.69 1276.46 2210.51 1287.9 2201.36 1299.35 2192.22 1328.74 2177.59 1326.92 2159.03 1325.1 2140.48 1286.08 2107.29 1276.98 2090.05 1267.87 2072.8 1266.57 2062.09 1272.3 2055.55 1278.02 2049.02 1304.55 2054.77 1311.31 2050.85 1318.08 2046.93 1317.82 2035.43 1312.87 2032.03 1307.93 2028.64 1301.17 2025.76 1291.02 2030.47Z" fill="#262626" fill-rule="evenodd"/><path d="M576.5 829.5C544.97 823.071 499.587 818.946 496.654 800.947 493.721 782.946 533.238 751.071 558.902 721.5" stroke="#FFFFFF" stroke-width="4.58333" stroke-miterlimit="8" fill="#FFFFFF" fill-rule="evenodd"/><path d="M736.5 843.5 636.368 830.929 614.5 685.786 701.972 603.5 736.5 843.5Z" stroke="#FFFFFF" stroke-width="4.58333" stroke-miterlimit="8" fill="#FFFFFF" fill-rule="evenodd"/><path d="M788.5 574.833 881.451 548.5 928.5 864.5 832.107 854.196 788.5 574.833Z" stroke="#FFFFFF" stroke-width="4.58333" stroke-miterlimit="8" fill="#FFFFFF" fill-rule="evenodd"/><path d="M114.415 281.647 26.7665 266.894 0 68.9285 84.1912 0 114.415 281.647Z" stroke="#FFFFFF" stroke-width="4.58333" stroke-miterlimit="8" fill="#FFFFFF" fill-rule="evenodd" transform="matrix(-0.952584 0.304274 0.304274 0.952584 1040.53 532.807)"/><path d="M79.4093 107.442C48.1119 101.046 3.06444 96.9426 0.153202 79.0358-2.75804 61.1287 36.4665 29.4185 61.9411 0" stroke="#FFFFFF" stroke-width="4.58333" stroke-miterlimit="8" fill="#FFFFFF" fill-rule="evenodd" transform="matrix(-0.942781 0.333412 0.333412 0.942781 1212.49 622.781)"/><path d="M823 703C823 683.118 839.118 667 859 667 878.882 667 895 683.118 895 703 895 722.882 878.882 739 859 739 839.118 739 823 722.882 823 703Z" fill-rule="evenodd"/></g></svg>