<svg width="2057" height="2056" xmlns="http://www.w3.org/2000/svg" xmlns:xlink="http://www.w3.org/1999/xlink" overflow="hidden"><defs><clipPath id="clip0"><rect x="1172" y="210" width="2057" height="2056"/></clipPath></defs><g clip-path="url(#clip0)" transform="translate(-1172 -210)"><path d="M1174.5 1238C1174.5 671.632 1633.86 212.5 2200.5 212.5 2767.14 212.5 3226.5 671.632 3226.5 1238 3226.5 1804.37 2767.14 2263.5 2200.5 2263.5 1633.86 2263.5 1174.5 1804.37 1174.5 1238Z" stroke="#FFFFFF" stroke-width="4.58333" stroke-miterlimit="8" fill="#FFFFFF" fill-rule="evenodd"/><path d="M1356.5 1238C1356.5 772.148 1734.37 394.5 2200.5 394.5 2666.63 394.5 3044.5 772.148 3044.5 1238 3044.5 1703.85 2666.63 2081.5 2200.5 2081.5 1734.37 2081.5 1356.5 1703.85 1356.5 1238Z" stroke="#FFFFFF" stroke-width="4.58333" stroke-miterlimit="8" fill="#003635" fill-rule="evenodd"/><path d="M1412 1237.5C1412 803.128 1763.9 451 2198 451 2632.1 451 2984 803.128 2984 1237.5 2984 1671.87 2632.1 2024 2198 2024 1763.9 2024 1412 1671.87 1412 1237.5Z" fill="#FFFFFF" fill-rule="evenodd"/><path d="M156.027 0 236.84 200.111 203.506 223.709 305.296 395.186 271.961 423.82 397.803 710.92 184.389 490.897 225.09 460.353 92.4893 319.42 140.005 275.876 0 128.031Z" stroke="#003635" stroke-width="55" stroke-linecap="round" stroke-linejoin="round" stroke-miterlimit="10" fill="#003635" fill-rule="evenodd" transform="matrix(-0.99966 -0.0260868 -0.0260868 0.99966 2032.85 906.838)"/><path d="M1810.85 877.718 2072.6 810.567 2069.09 1080.77Z" stroke="#003635" stroke-width="55" stroke-linecap="round" stroke-linejoin="round" stroke-miterlimit="10" fill="#003635" fill-rule="evenodd"/><text fill="#003635" font-family="Raleway ExtraBold,Raleway ExtraBold_MSFontService,sans-serif" font-weight="800" font-size="202" transform="matrix(1 0 0 1 2191.24 1029)">Level<tspan font-size="202" x="0" y="242">Up </tspan><tspan font-size="202" x="0" y="484">Games</tspan></text></g></svg>